<svg xmlns:mydata="http://www.w3.org/2000/svg" mydata:contrastcolor="ffffff" mydata:template="Default" mydata:presentation="2.5" mydata:layouttype="undefined" mydata:specialfontid="undefined" mydata:id1="434" mydata:id2="640" mydata:companyname="itz CLUB" xmlns="http://www.w3.org/2000/svg" viewBox="0 160 550 150"><g data-paper-data="{&quot;isGlobalGroup&quot;:true,&quot;bounds&quot;:{&quot;x&quot;:65,&quot;y&quot;:194.2962314076579,&quot;width&quot;:420,&quot;height&quot;:81.40753718468426}}" fill="#2d2926" stroke-miterlimit="10" font-family="none" font-weight="none" font-size="none" text-anchor="none" style="mix-blend-mode:normal"><g data-paper-data="{&quot;isPrimaryText&quot;:true}"><path d="M165.912 218.557q0-1.867 1.342-3.21 1.314-1.342 3.21-1.342 1.897 0 3.24 1.342 1.312 1.343 1.312 3.21v32.828q0 1.896-1.313 3.21-1.342 1.342-3.239 1.342t-3.21-1.342q-1.341-1.314-1.342-3.21z" data-paper-data="{&quot;glyphName&quot;:&quot;I&quot;,&quot;glyphIndex&quot;:0,&quot;firstGlyphOfWord&quot;:true,&quot;word&quot;:1}"/><path d="M217.882 213.946q1.867 0 3.21 1.343 1.343 1.341 1.343 3.21 0 1.896-1.343 3.239-1.343 1.313-3.21 1.313h-11.847v28.275q0 1.897-1.342 3.21-1.342 1.343-3.24 1.343-1.866 0-3.209-1.343-1.342-1.312-1.342-3.21v-28.275h-11.848q-1.896 0-3.21-1.313-1.342-1.343-1.342-3.24 0-1.867 1.343-3.21 1.312-1.342 3.21-1.342z" data-paper-data="{&quot;glyphName&quot;:&quot;T&quot;,&quot;glyphIndex&quot;:1,&quot;word&quot;:1}"/><path d="M264.513 246.774q1.896 0 3.21 1.343 1.341 1.341 1.342 3.21 0 1.897-1.342 3.238-1.314 1.314-3.21 1.314h-32.77a4.8 4.8 0 0 1-1.926-.409l-.087-.058h-.03l-.058-.03-.029-.029-.058-.029-.059-.029-.058-.03-.03-.028-.058-.03-.029-.029-.058-.029-.059-.03-.029-.028-.058-.03-.03-.029-.058-.029-.058-.058h-.03a.3.3 0 0 0-.058-.088 4.3 4.3 0 0 1-.73-.73l-.028-.028-.03-.059-.029-.029-.058-.058-.03-.03-.028-.058-.03-.058-.029-.03-.029-.058-.029-.058-.03-.03-.028-.058-.03-.029-.029-.087v-.03l-.058-.058v-.03a4.44 4.44 0 0 1-.467-2.013q0-1.283.7-2.392a.3.3 0 0 1 .059-.088v-.029q.263-.409.612-.73l24.979-24.978h-21.798q-1.896 0-3.21-1.342-1.342-1.314-1.342-3.21 0-1.867 1.342-3.21 1.314-1.342 3.21-1.342h32.77q1.02 0 1.926.437l.087.03.03.029.058.029.058.03h.03l.058.028.058.03.03.029.058.029.058.029.03.03.057.028.03.03.058.058.03.03.058.028.058.03.029.029.058.058h.03q.408.321.7.759h.03l.057.087.03.03.029.058.029.029.03.058.028.03.03.058.029.03.029.057.03.03.028.087.03.03.029.058.029.029.029.087a4.56 4.56 0 0 1 .467 2.014 4.6 4.6 0 0 1-.671 2.422.3.3 0 0 0-.059.087h-.029q-.263.41-.613.76l-24.949 24.948z" data-paper-data="{&quot;glyphName&quot;:&quot;Z&quot;,&quot;glyphIndex&quot;:2,&quot;lastGlyphOfWord&quot;:true,&quot;word&quot;:1}"/><path d="M340.411 214.034q1.868 0 3.21 1.342t1.342 3.21q0 1.896-1.342 3.239t-3.21 1.342h-16.895q-4.67 0-7.996 3.414-3.385 3.472-3.385 8.434 0 4.931 3.385 8.404 3.327 3.443 7.996 3.443h16.895q1.868 0 3.21 1.342 1.342 1.314 1.342 3.21t-1.342 3.21q-1.342 1.342-3.21 1.342h-16.895q-8.492 0-14.503-6.215-5.982-6.157-5.982-14.736 0-8.61 5.982-14.766 6.011-6.215 14.503-6.215z" data-paper-data="{&quot;glyphName&quot;:&quot;C&quot;,&quot;glyphIndex&quot;:3,&quot;firstGlyphOfWord&quot;:true,&quot;word&quot;:2}"/><path d="M349.895 218.644q0-1.896 1.342-3.239t3.21-1.342q1.896 0 3.239 1.342t1.342 3.24v28.275h28.305q1.868 0 3.21 1.343 1.342 1.341 1.342 3.239 0 1.896-1.342 3.21-1.343 1.341-3.21 1.342h-32.886a4.5 4.5 0 0 1-1.868-.409q-.058 0-.087-.029l-.117-.058a.3.3 0 0 0-.088-.059.2.2 0 0 0-.087-.029q-.058-.058-.117-.058a.3.3 0 0 0-.087-.059q-.059-.058-.088-.058a.2.2 0 0 1-.087-.088.3.3 0 0 1-.088-.058.3.3 0 0 1-.088-.058.3.3 0 0 1-.087-.059.2.2 0 0 0-.088-.087.3.3 0 0 0-.087-.059.3.3 0 0 0-.058-.087.2.2 0 0 1-.088-.088.3.3 0 0 1-.088-.058.3.3 0 0 0-.058-.088.2.2 0 0 1-.087-.087.3.3 0 0 1-.059-.088.2.2 0 0 1-.087-.087.3.3 0 0 1-.059-.088.3.3 0 0 1-.058-.087.3.3 0 0 1-.058-.088.3.3 0 0 1-.059-.087l-.058-.088a.3.3 0 0 0-.059-.087l-.058-.117a.3.3 0 0 1-.058-.088.3.3 0 0 1-.059-.087.3.3 0 0 0-.029-.117 4.4 4.4 0 0 1-.408-1.867z" data-paper-data="{&quot;glyphName&quot;:&quot;L&quot;,&quot;glyphIndex&quot;:4,&quot;word&quot;:2}"/><path d="M405.6 235.423q0 4.67 3.414 7.996 3.472 3.355 8.404 3.355 4.96 0 8.433-3.355 3.414-3.327 3.414-7.996v-16.866q0-1.898 1.343-3.21 1.312-1.342 3.21-1.342 1.896 0 3.21 1.342 1.341 1.313 1.342 3.21v16.866q0 8.463-6.187 14.503-6.156 5.953-14.765 5.953-8.58 0-14.736-5.953-6.186-6.04-6.186-14.503v-16.866q0-1.898 1.342-3.21 1.313-1.342 3.21-1.342 1.896 0 3.21 1.342 1.342 1.313 1.342 3.21z" data-paper-data="{&quot;glyphName&quot;:&quot;U&quot;,&quot;glyphIndex&quot;:5,&quot;word&quot;:2}"/><path d="M452.23 239.508v7.266h20.018q1.488 0 2.568-1.08 1.08-1.05 1.08-2.567 0-1.488-1.08-2.568-1.08-1.05-2.568-1.05zm-9.104-20.951q0-1.867 1.342-3.21 1.314-1.342 3.21-1.342h24.57q5.282 0 9.017 3.735 3.735 3.764 3.735 9.017 0 4.64-3.006 8.2 3.006 3.56 3.006 8.17 0 5.28-3.735 9.016t-9.017 3.736h-24.57q-1.896 0-3.21-1.343-1.341-1.312-1.342-3.21zm29.122 11.847q1.488 0 2.568-1.08t1.08-2.567q0-1.49-1.08-2.568-1.08-1.08-2.568-1.08H452.23v7.295z" data-paper-data="{&quot;glyphName&quot;:&quot;B&quot;,&quot;glyphIndex&quot;:6,&quot;lastGlyphOfWord&quot;:true,&quot;word&quot;:2}"/></g><g data-paper-data="{&quot;fillRule&quot;:&quot;nonzero&quot;,&quot;fillRuleOriginal&quot;:&quot;nonzero&quot;,&quot;isIcon&quot;:true,&quot;iconStyle&quot;:&quot;standalone&quot;,&quot;selectedEffects&quot;:{&quot;container&quot;:&quot;&quot;,&quot;transformation&quot;:&quot;&quot;,&quot;pattern&quot;:&quot;&quot;},&quot;bounds&quot;:{&quot;x&quot;:65,&quot;y&quot;:194.2962314076579,&quot;width&quot;:81.4075412550601,&quot;height&quot;:81.40753718468426},&quot;iconType&quot;:&quot;icon&quot;,&quot;rawIconId&quot;:&quot;60ca02c0-c4c4-4034-9fb1-342d0a67ca77&quot;,&quot;isDetailed&quot;:false,&quot;suitableAsStandaloneIcon&quot;:true}"><path d="M69.536 235c0-19.975 16.193-36.168 36.168-36.168s36.168 16.193 36.168 36.168-16.193 36.168-36.168 36.168S69.536 254.975 69.536 235m29.61 9.369c-.734 0-1.386.651-1.386 1.466 0 .489.245.896.652 1.222v12.057H87.17v-26.802h-1.467v28.268H99.96v-13.523c.407-.244.652-.733.652-1.222a1.46 1.46 0 0 0-1.467-1.466m2.362-21.752h24.113V209.42H99.227c-7.414 0-13.524 6.11-13.524 13.605v1.873c-.488.163-.814.652-.814 1.222a1.46 1.46 0 0 0 1.466 1.467 1.46 1.46 0 0 0 1.466-1.467 1.3 1.3 0 0 0-.651-1.14v-1.955c0-6.68 5.458-12.057 12.057-12.057h24.928v10.183h-22.647c-1.63 0-3.015 1.385-3.015 3.014v5.295h19.47v10.51h-19.55v1.547h21.018v-13.523h-19.389v-3.829c0-.814.652-1.548 1.467-1.548m0-3.014h21.1v-7.169H99.226c-5.784 0-10.51 4.725-10.51 10.59v34.542h8.147v-19.063h19.552v-7.495H97.027v-6.843c0-2.525 2.037-4.562 4.48-4.562m44.892 16.199-.01.406-.013.407-.018.406-.021.407-.026.406-.03.406-.033.405-.037.406-.042.404-.045.405-.05.404-.054.404-.058.402-.062.403-.066.402-.07.4-.074.401-.079.4-.082.399-.087.398-.09.397-.095.396-.099.395-.102.394-.107.393-.11.392-.115.39-.119.39-.122.388-.127.387-.13.386-.134.384-.138.383-.142.382-.145.38-.15.378-.152.377-.157.376-.092.216-.162.372-.166.37-.17.37-.173.369-.177.366-.18.365-.184.363-.188.361-.192.36-.195.357-.198.355-.203.353-.206.352-.21.349-.212.347-.217.345-.22.342-.223.34-.227.339-.23.336-.234.333-.237.331-.24.329-.244.326-.247.323-.25.322-.254.318-.257.316-.26.314-.262.31-.266.308-.27.306-.271.302-.275.3-.278.298-.28.294-.284.292-.286.289-.167.166-.289.283-.293.282-.296.279-.299.276-.301.273-.304.27-.307.268-.31.264-.312.261-.315.258-.317.255-.32.252-.322.248-.326.245-.327.242-.33.239-.332.235-.335.232-.337.229-.34.225-.341.221-.344.218-.346.215-.348.21-.35.208-.353.204-.355.2-.356.197-.358.193-.36.19-.363.186-.364.182-.366.178-.367.175-.37.172-.37.167-.372.164-.374.16-.37.155-.376.153-.379.15-.38.145-.38.142-.384.138-.384.134-.386.13-.387.127-.388.123-.39.118-.39.115-.392.111-.393.107-.394.103-.395.099-.396.094-.397.091-.398.087-.399.082-.4.079-.4.074-.4.07-.402.067-.403.062-.403.058-.403.054-.404.05-.405.046-.405.041-.405.038-.406.034-.406.03-.406.025-.406.022-.406.018-.407.013-.407.01-.406.006-.407.002-.4-.002-.406-.006-.407-.01-.406-.013-.407-.017-.406-.022-.406-.025-.406-.03-.406-.033-.405-.038-.405-.042-.404-.045-.404-.05-.404-.054-.403-.058-.402-.062-.402-.066-.401-.07-.4-.074-.4-.079-.399-.082-.398-.086-.397-.09-.396-.096-.395-.098-.394-.103-.393-.107-.392-.11-.39-.115-.39-.118-.389-.123-.387-.126-.385-.13-.385-.135-.383-.138-.381-.141-.38-.146-.379-.15-.377-.152-.375-.157-.216-.092-.372-.161-.371-.166-.37-.17-.368-.173-.366-.177-.365-.18-.363-.185-.361-.188-.36-.191-.357-.195-.355-.2-.353-.201-.352-.206-.349-.21-.347-.213-.345-.216-.343-.22-.34-.224-.338-.227-.336-.23-.333-.234-.331-.237-.329-.24-.326-.244-.324-.247-.32-.25-.32-.254-.315-.256-.314-.26-.31-.263-.308-.266-.306-.27-.303-.271-.3-.275-.297-.278-.294-.28-.292-.284-.289-.286-.166-.166-.283-.29-.282-.293-.279-.296-.276-.299-.273-.301-.27-.304-.268-.307-.264-.31-.261-.312-.258-.314-.255-.318-.252-.32-.248-.322-.246-.325-.241-.328-.24-.33-.234-.332-.232-.335-.229-.337-.225-.34-.221-.34-.218-.345-.215-.346-.21-.348-.208-.35-.204-.353-.2-.354-.197-.357-.193-.358-.19-.36-.186-.363-.182-.363-.179-.366-.175-.368-.17-.369-.168-.37-.164-.373-.16-.374-.155-.369-.153-.377-.15-.378-.145-.38-.142-.381-.138-.383-.134-.385-.13-.385-.127-.387-.123-.388-.119-.39-.114-.39-.111-.392-.107-.393-.103-.394-.099-.395-.094-.397-.091-.396-.087-.398-.082-.4-.079-.399-.074-.4-.07-.401-.067-.402-.062-.402-.058-.403-.054-.404-.05-.404-.046-.405-.042-.404-.037-.406-.034-.405-.03-.406-.025-.406-.022-.407-.018-.406-.013-.407-.01-.406-.006-.407-.002-.406.002-.4.006-.407.01-.407.013-.406.017-.407.022-.406.025-.406.03-.406.033-.405.038-.405.041-.405.046-.405.05-.404.054-.403.058-.403.061-.403.067-.402.07-.4.074-.401.078-.4.083-.399.086-.398.09-.397.095-.396.1-.395.102-.394.106-.393.111-.392.115-.39.118-.39.123-.388.126-.387.13-.386.135-.384.138-.383.141-.382.146-.38.15-.378.152-.377.157-.376.092-.216.161-.371.166-.372.17-.37.173-.368.177-.366.18-.365.185-.363.188-.361.191-.36.195-.357.2-.355.201-.353.206-.351.21-.35.213-.347.216-.345.22-.342.224-.34.226-.339.23-.336.235-.333.237-.331.24-.329.244-.326.247-.323.25-.321.254-.319.256-.316.26-.313.263-.311.266-.308.269-.306.272-.302.275-.3.277-.297.281-.295.283-.292.287-.289.166-.165.29-.284.293-.281.296-.28.298-.276.302-.273.304-.27.307-.267.31-.265.311-.26.315-.259.318-.255.32-.251.322-.249.325-.245.327-.242.33-.239.333-.235.334-.232.337-.228.34-.225.342-.222.343-.218.346-.215.349-.21.35-.208.353-.204.354-.2.356-.197.359-.193.36-.19.362-.185.364-.183.366-.178.367-.175.37-.171.37-.168.373-.164.373-.16.37-.155.377-.153.378-.149.38-.146.381-.142.383-.138.385-.134.385-.13.387-.127.388-.123.39-.118.39-.115.392-.111.393-.107.394-.103.395-.098.396-.095.397-.09.398-.088.399-.082.4-.079.4-.074.401-.07.402-.067.402-.062.403-.058.404-.054.404-.05.404-.046.405-.041.406-.038.405-.034.406-.03.406-.025.406-.022.407-.017.406-.014.407-.01.407-.006.406-.002.4.002.407.006.406.01.407.013.406.017.406.022.407.025.405.03.406.033.405.038.405.042.405.045.404.05.403.054.403.058.403.062.401.066.401.07.4.074.4.079.4.082.397.086.397.091.397.095.395.098.394.103.393.107.391.11.391.115.39.119.388.122.387.126.386.13.384.135.383.138.382.142.38.145.378.15.377.152.376.157.216.092.371.162.372.166.37.17.368.173.366.176.365.181.363.184.36.188.36.192.357.195.356.198.353.203.351.206.35.209.347.213.344.216.343.22.34.224.339.227.335.23.334.234.331.237.328.24.327.244.323.247.321.25.319.254.316.257.313.26.31.262.31.266.304.27.303.271.3.275.297.278.295.28.292.284.288.286.166.167.284.289.281.293.28.296.275.299.274.301.27.304.267.307.264.31.262.312.258.314.255.318.251.32.249.322.245.325.242.328.239.33.235.332.232.335.228.337.225.34.222.34.218.345.215.346.21.348.208.35.204.353.2.354.197.357.193.358.19.36.185.363.183.363.178.366.175.368.171.369.168.37.164.373.16.374.155.369.152.377.15.378.145.38.143.382.138.383.134.384.13.385.127.387.122.389.12.389.114.39.11.392.108.393.103.394.098.395.095.397.09.397.087.397.083.4.079.399.074.4.07.401.066.402.063.403.058.402.054.404.05.404.045.405.042.404.038.406.034.405.03.406.025.406.021.407.018.406.014.407.01.406.006.407.002.406v.01l-.002.39zm-1.904-1.186-.005-.388-.01-.388-.013-.388-.017-.388-.02-.388-.024-.387-.029-.387-.032-.386-.035-.387-.04-.386-.044-.385-.047-.385-.052-.384-.055-.384-.059-.383-.063-.383-.067-.382-.07-.381-.075-.38-.079-.38-.082-.38-.086-.377-.09-.377-.094-.377-.098-.375-.102-.374-.105-.373-.11-.372-.113-.371-.116-.37-.12-.369-.125-.367-.128-.367-.131-.365-.136-.363-.138-.363-.143-.36-.146-.36-.147-.353-.153-.357-.156-.355-.16-.354-.163-.352-.167-.35-.17-.349-.174-.347-.177-.345-.18-.343-.184-.342-.187-.34-.191-.337-.194-.336-.198-.333-.2-.332-.205-.33-.208-.327-.21-.326-.215-.323-.217-.321-.22-.319-.225-.316-.227-.315-.23-.312-.234-.31-.237-.307-.24-.305-.242-.302-.246-.3-.249-.298-.252-.295-.255-.293-.258-.29-.26-.287-.264-.285-.266-.283-.269-.28-.273-.279-.155-.156-.276-.274-.279-.27-.28-.268-.284-.265-.286-.262-.289-.26-.291-.256-.294-.254-.296-.25-.298-.248-.301-.245-.304-.241-.306-.239-.308-.235-.31-.233-.313-.229-.316-.226-.317-.222-.32-.22-.322-.216-.324-.213-.326-.21-.328-.206-.331-.202-.332-.2-.335-.196-.337-.193-.338-.19-.34-.185-.343-.183-.344-.179-.346-.176-.347-.172-.35-.169-.351-.165-.353-.162-.354-.158-.358-.156-.203-.087-.358-.15-.36-.145-.36-.143-.363-.138-.364-.136-.365-.131-.366-.128-.367-.124-.369-.12-.37-.118-.37-.113-.373-.109-.373-.105-.374-.102-.375-.098-.376-.094-.378-.09-.378-.086-.378-.083-.38-.078-.38-.075-.382-.071-.382-.067-.382-.063-.384-.059-.384-.055-.384-.052-.385-.047-.385-.044-.386-.04-.387-.035-.386-.032-.387-.029-.388-.024-.387-.02-.388-.017-.388-.014-.388-.009-.389-.005-.382-.002-.388.002-.388.005-.388.01-.388.012-.388.017-.388.02-.387.025-.387.028-.387.032-.386.036-.386.04-.385.043-.385.048-.385.051-.384.055-.383.06-.382.063-.382.066-.382.071-.38.075-.38.078-.379.083-.378.086-.377.09-.376.094-.375.098-.374.102-.374.105-.372.11-.37.112-.37.117-.37.12-.367.125-.366.128-.365.131-.364.135-.362.14-.361.142-.36.146-.352.147-.357.153-.355.156-.354.16-.352.163-.35.167-.35.17-.346.174-.345.177-.344.18-.341.184-.34.187-.337.191-.336.194-.334.198-.332.2-.33.205-.327.207-.325.211-.323.215-.321.217-.32.22-.316.225-.314.227-.312.23-.31.234-.307.236-.305.24-.302.243-.3.246-.298.249-.295.252-.293.255-.29.257-.288.26-.285.264-.282.267-.28.268-.28.274-.156.155-.273.276-.27.278-.268.281-.265.284-.263.286-.26.289-.256.29-.253.295-.25.296-.249.298-.244.301-.242.304-.238.306-.236.308-.232.31-.229.313-.226.315-.223.318-.219.32-.216.322-.213.324-.21.326-.206.328-.203.33-.2.333-.196.335-.192.336-.19.339-.186.34-.182.342-.18.345-.175.346-.172.347-.169.35-.165.35-.162.353-.159.355-.155.358-.087.202-.15.359-.145.36-.143.36-.139.363-.135.363-.131.365-.128.366-.125.368-.12.369-.117.37-.113.37-.11.372-.105.374-.101.374-.098.375-.094.376-.09.377-.087.378-.082.379-.079.38-.074.38-.071.381-.067.382-.063.383-.06.383-.055.384-.05.385-.048.385-.044.385-.04.386-.036.386-.032.387-.028.387-.024.387-.021.388-.017.388-.013.388-.01.388-.005.388-.001.382.001.389.006.388.01.388.012.388.017.388.02.388.025.387.028.387.032.387.036.386.04.386.043.385.048.385.051.385.055.383.06.383.062.383.067.382.07.381.076.38.078.38.083.38.086.377.09.378.094.376.098.375.101.374.106.373.109.372.113.371.117.37.12.369.125.368.127.366.132.365.135.363.139.363.142.36.146.36.147.353.153.357.157.355.16.354.163.352.166.35.17.349.174.347.177.345.18.343.185.342.187.34.19.337.195.336.197.334.201.331.204.33.208.327.21.326.215.323.218.321.22.319.224.316.228.315.23.312.233.31.237.307.24.305.243.302.246.3.248.298.252.295.255.292.258.29.26.288.264.286.266.282.27.28.272.279.156.156.276.274.278.27.281.268.284.265.286.262.288.26.292.256.293.254.296.25.299.248.3.245.304.241.306.24.308.234.311.233.313.229.315.226.318.222.32.22.321.216.324.213.327.21.328.206.33.203.333.2.334.195.337.193.339.19.34.185.342.183.344.179.346.176.348.172.35.169.35.165.353.162.354.159.358.155.203.087.358.15.36.145.36.143.363.139.364.135.365.131.366.128.368.124.368.12.37.118.371.113.372.109.373.105.374.102.376.098.376.094.377.09.378.087.379.082.38.078.38.075.381.07.382.068.383.063.383.06.384.054.384.052.385.047.386.044.386.04.386.035.387.032.387.029.387.024.388.02.387.018.388.013.389.009.388.005.382.002.388-.002.389-.005.388-.01.388-.012.388-.017.387-.02.387-.025.387-.028.387-.032.386-.036.386-.04.386-.044.385-.047.384-.051.384-.055.383-.06.383-.063.382-.066.38-.071.381-.075.38-.078.379-.083.378-.086.377-.09.376-.094.375-.098.375-.102.373-.105.372-.11.371-.112.37-.117.369-.12.367-.125.366-.128.365-.131.364-.136.363-.138.36-.143.36-.146.353-.147.356-.153.356-.156.353-.16.352-.163.35-.167.35-.17.346-.174.346-.177.343-.18.341-.184.34-.187.338-.19.335-.195.334-.198.332-.2.33-.205.327-.207.326-.211.323-.214.32-.218.32-.22.316-.225.314-.227.312-.23.31-.234.307-.237.305-.24.303-.242.3-.246.297-.249.296-.252.292-.254.29-.258.288-.26.285-.264.283-.266.28-.27.279-.272.156-.156.273-.276.27-.278.269-.281.265-.284.262-.286.26-.289.256-.29.254-.294.25-.297.248-.298.245-.301.241-.304.239-.305.235-.309.232-.31.23-.313.225-.315.223-.318.22-.32.216-.322.213-.324.21-.326.205-.328.203-.33.2-.333.196-.335.193-.336.19-.339.185-.34.183-.343.179-.344.175-.346.173-.347.168-.35.166-.35.162-.354.158-.354.156-.358.086-.203.15-.358.146-.36.142-.36.14-.363.134-.363.132-.365.128-.367.124-.367.12-.369.117-.37.113-.37.11-.373.105-.373.102-.374.098-.375.094-.376.09-.377.086-.378.083-.38.078-.379.075-.38.07-.382.067-.382.064-.382.059-.384.055-.383.051-.385.048-.385.043-.385.04-.386.036-.386.032-.387.028-.387.025-.388.02-.387.017-.388.013-.388.01-.388.005-.389.002-.381v-.01z" data-paper-data="{&quot;isPathIcon&quot;:true}"/></g></g></svg>