<svg xmlns="http://www.w3.org/2000/svg" class="thumbnail-icon" viewBox="0 0 200 200"><path d="M11.143 100c0-49.074 39.783-88.857 88.857-88.857 49.075 0 88.858 39.783 88.858 88.857 0 49.075-39.783 88.858-88.858 88.858-49.074 0-88.857-39.783-88.857-88.858m72.744 23.017c-1.801 0-3.402 1.6-3.402 3.602 0 1.201.6 2.202 1.6 3.002v29.621H54.467V93.396h-3.602v69.449h35.024V129.62c1.001-.6 1.602-1.801 1.602-3.002a3.59 3.59 0 0 0-3.603-3.602m5.804-53.438h59.242V37.155H84.087c-18.213 0-33.223 15.011-33.223 33.424v4.604c-1.201.4-2.002 1.6-2.002 3.002a3.59 3.59 0 0 0 3.603 3.602 3.59 3.59 0 0 0 3.602-3.602c0-1.201-.6-2.202-1.6-2.802v-4.804c0-16.411 13.409-29.62 29.62-29.62h61.244v25.017H89.69c-4.003 0-7.405 3.402-7.405 7.405v13.01h47.834v25.818H82.086v3.803h51.636V82.788H86.09v-9.407c0-2.001 1.6-3.802 3.602-3.802m0-7.406h51.837V44.561h-57.44c-14.211 0-25.82 11.608-25.82 26.018v84.86h20.015v-46.833h48.034V90.193H78.683V73.381c0-6.204 5.004-11.208 11.008-11.208m110.29 39.797-.023.999-.034.999-.042.998-.054.998-.062.998-.072.997-.083.997-.092.995-.102.995-.112.994-.123.992-.132.992-.142.99-.152.988-.163.988-.172.985-.182.984-.193.981-.202.98-.213.978-.222.975-.233.974-.242.97-.252.968-.263.966-.271.962-.282.96-.291.957-.301.955-.31.95-.321.948-.33.944-.338.941-.349.937-.357.934-.367.93-.375.926-.386.923-.226.531-.396.912-.409.912-.416.91-.426.904-.434.9-.444.896-.453.891-.461.888-.47.882-.48.878-.488.873-.497.868-.506.863-.514.858-.523.853-.532.847-.54.842-.55.836-.557.83-.566.826-.574.819-.583.813-.59.807-.6.802-.606.795-.616.789-.622.782-.63.777-.639.77-.645.763-.654.757-.661.75-.668.744-.675.736-.683.731-.689.724-.696.716-.703.71-.41.408-.71.695-.72.693-.727.685-.734.679-.741.67-.747.665-.754.656-.76.65-.767.641-.774.634-.78.626-.785.62-.792.61-.8.602-.804.594-.81.586-.817.578-.822.57-.828.561-.834.553-.84.544-.844.536-.85.527-.856.519-.86.51-.866.5-.872.492-.875.484-.88.474-.886.466-.89.457-.893.447-.9.439-.902.43-.907.42-.91.412-.915.403-.919.394-.907.379-.926.376-.93.366-.933.358-.937.349-.94.34-.945.33-.947.32-.95.31-.954.302-.957.292-.96.282-.962.272-.966.263-.968.252-.97.243-.974.232-.975.223-.978.213-.98.203-.98.193-.985.183-.985.173-.987.162-.989.153-.99.143-.991.132-.993.123-.994.113-.994.102-.996.093-.996.083-.998.072-.997.064-.999.052-.998.044-.999.034-.999.024-.999.014-.999.005-.983-.005-.998-.013-1-.024-.998-.034-.998-.042-.998-.054-.998-.062-.997-.072-.996-.083-.996-.092-.995-.102-.993-.112-.993-.123-.992-.132-.99-.142-.988-.152-.987-.163-.986-.172-.984-.182-.981-.193-.98-.202-.978-.213-.975-.222-.973-.233-.971-.242-.968-.252-.966-.262-.963-.272-.96-.282-.956-.291-.954-.301-.951-.31-.948-.321-.944-.33-.94-.339-.938-.348-.934-.357-.93-.367-.926-.375-.922-.385-.532-.226-.912-.397-.912-.408-.909-.417-.904-.426-.9-.434-.897-.444-.891-.453-.887-.461-.883-.47-.878-.48-.873-.488-.868-.497-.863-.506-.858-.514-.852-.523-.848-.532-.841-.54-.837-.55-.83-.557-.825-.566-.82-.574-.813-.583-.807-.59-.801-.6-.795-.606-.79-.615-.782-.623-.776-.63-.77-.639-.763-.645-.757-.654-.75-.66-.744-.669-.737-.675-.73-.683-.724-.689-.717-.696-.71-.703-.407-.41-.696-.71-.692-.72-.686-.727-.678-.734-.671-.741-.664-.747-.657-.754-.65-.76-.64-.768-.635-.773-.626-.78-.619-.785-.61-.792-.602-.8-.595-.804-.586-.81-.578-.817-.57-.822-.561-.828-.553-.834-.544-.84-.536-.844-.527-.85-.519-.856-.51-.86-.5-.867-.492-.87-.484-.876-.474-.88-.466-.886-.456-.89-.448-.893-.439-.899-.43-.903-.42-.907-.412-.91-.403-.915-.394-.919-.378-.907-.376-.926-.367-.93-.358-.933-.349-.937-.34-.94-.329-.945-.32-.947-.311-.95-.302-.954-.291-.957-.282-.96-.273-.962-.262-.966-.253-.967-.243-.971-.232-.974-.223-.975-.213-.977-.203-.98-.193-.982-.183-.984-.172-.985-.163-.987-.153-.989-.143-.99-.132-.991-.123-.993-.113-.994-.102-.994-.093-.996L.31 108l-.073-1-.063-.997-.054-.999-.043-.998-.034-.999-.024-.999-.014-.999L0 100.01l.005-.983.014-.999.023-.998.033-.999.044-.999.052-.998.063-.997.072-.997.083-.996.092-.996.102-.995.112-.994.123-.992.132-.992.142-.99.152-.988.163-.987.172-.986.183-.984.192-.981.203-.98.212-.978.222-.975.233-.973.242-.971.252-.968.263-.966.271-.963.282-.96.291-.956.301-.954.31-.951.321-.948.33-.944.339-.94.348-.938.357-.934.367-.93.376-.926.385-.922.226-.532.397-.912.408-.912.416-.909.426-.904.435-.9.443-.897.453-.891.461-.887.47-.883.48-.878.488-.873.497-.868.506-.863.514-.858.524-.852.531-.848.54-.841.55-.837.557-.83.566-.825.575-.82.582-.813.591-.807.599-.801.607-.795.615-.79.622-.782.631-.776.638-.77.646-.763.653-.757.661-.75.668-.744.675-.737.683-.73.69-.724.695-.717.703-.71.41-.407.71-.696.72-.692.728-.686.733-.678.741-.671.747-.664.754-.657.76-.649.767-.642.774-.634.78-.626.786-.618.792-.61.798-.603.805-.595.81-.586.817-.578.822-.57.828-.56.834-.554.84-.544.844-.536.85-.527.856-.518.86-.51.867-.501.87-.492.876-.483.88-.475.886-.465.89-.457.894-.448.898-.438.903-.43.907-.42.91-.413.915-.403.919-.393.907-.38.926-.375.93-.367.933-.358.937-.349.94-.34.945-.329.947-.32.95-.311.955-.302.956-.291.96-.282.963-.273.965-.262.968-.253.97-.243.974-.232.975-.223.978-.213.98-.203.981-.193.984-.183.985-.172.987-.163.989-.153.99-.143.991-.132.993-.123.994-.112.995-.103.995-.093.997-.082.997-.073.998-.063.998-.054.998-.043 1-.034.998-.024.999-.014.999-.005.983.004.998.015 1 .023.998.034.998.043.998.052.998.063.997.072.997.083.995.092.995.102.994.112.992.123.992.132.99.142.988.152.988.163.985.172.984.183.982.192.98.203.977.212.975.222.974.233.97.242.968.252.966.263.962.271.96.282.957.291.955.301.95.311.947.32.945.33.941.339.937.348.934.357.93.367.926.376.923.385.531.226.912.397.912.408.91.417.904.425.9.435.896.443.891.453.888.461.883.47.877.48.873.488.868.497.863.506.858.514.853.524.847.532.842.54.836.549.83.558.826.565.819.575.813.582.807.591.802.599.795.607.789.615.783.622.776.631.77.638.763.646.757.653.75.661.744.668.736.675.731.683.724.69.716.695.71.703.408.41.695.71.693.72.685.728.678.734.672.74.664.747.656.754.65.76.641.767.634.774.626.78.619.786.61.792.603.798.594.805.586.81.578.817.57.822.561.828.553.834.544.84.536.844.527.85.519.856.51.86.5.867.492.87.484.876.474.88.466.886.457.89.447.894.439.898.43.903.42.907.412.91.403.915.394.919.379.907.376.926.366.93.358.933.35.937.338.94.33.945.32.947.312.95.3.955.293.956.282.96.272.963.263.965.252.968.243.97.232.974.223.975.213.978.203.98.193.981.183.984.173.985.162.987.153.989.143.99.132.991.123.993.113.994.102.994.093.996.083.996.072.998.064.997.052 1 .044.997.034 1 .023.998.015 1 .005.998v.022l-.005.96zm-4.677-2.913-.013-.954-.023-.953-.032-.953-.042-.953-.05-.952-.06-.952-.069-.95-.079-.95-.088-.95-.097-.947-.108-.947-.116-.946-.126-.944-.136-.944-.145-.941-.155-.94-.164-.938-.174-.937-.183-.935-.193-.933-.203-.93-.211-.93-.222-.926-.231-.924-.24-.922-.25-.919-.259-.917-.269-.914-.277-.911-.287-.91-.296-.905-.305-.903-.314-.9-.323-.896-.333-.894-.34-.89-.35-.887-.36-.884-.36-.866-.376-.876-.384-.873-.393-.869-.4-.865-.41-.86-.418-.857-.427-.853-.435-.848-.444-.843-.45-.84-.461-.834-.469-.83-.477-.824-.485-.82-.494-.815-.501-.81-.51-.804-.519-.8-.526-.794-.534-.789-.542-.783-.55-.778-.56-.772-.565-.766-.574-.76-.581-.756-.589-.749-.597-.743-.604-.737-.61-.731-.62-.726-.626-.719-.633-.712-.64-.707-.648-.7-.653-.695-.661-.688-.671-.685-.382-.384-.678-.672-.684-.664-.69-.658-.697-.652-.703-.644-.71-.637-.714-.63-.722-.623-.727-.616-.734-.609-.74-.6-.745-.594-.751-.586-.758-.578-.763-.571-.768-.563-.775-.555-.78-.547-.785-.54-.791-.53-.796-.523-.802-.515-.806-.507-.813-.498-.816-.49-.823-.482-.826-.474-.832-.465-.836-.457-.841-.449-.846-.44-.85-.431-.853-.423-.859-.415-.862-.406-.867-.398-.87-.39-.88-.382-.498-.212-.88-.368-.884-.358-.887-.35-.89-.341-.893-.333-.897-.323-.9-.314-.902-.305-.906-.296-.908-.287-.912-.278-.914-.269-.917-.259-.919-.25-.922-.24-.924-.23-.926-.222-.93-.212-.93-.203-.933-.193-.934-.183-.937-.174-.938-.165-.94-.155-.942-.145-.943-.136-.944-.126-.946-.117-.947-.107-.948-.097-.95-.089-.95-.078-.95-.07-.952-.06-.952-.05-.953-.041-.953-.032-.954-.023-.954-.014-.939-.004-.954.004-.954.014-.953.022-.953.032-.953.041-.952.051-.952.06-.95.07-.95.078-.95.088-.947.097-.947.108-.946.116-.944.126-.944.136-.941.145-.94.155-.938.164-.937.174-.935.183-.933.193-.93.203-.93.212-.926.221-.924.231-.922.24-.919.25-.917.26-.914.267-.911.278-.91.287-.905.296-.903.305-.9.314-.896.324-.894.332-.89.34-.887.35-.884.36-.866.36-.876.376-.873.384-.869.393-.865.401-.86.41-.857.418-.853.426-.848.435-.843.444-.84.451-.834.46-.83.47-.824.476-.82.485-.815.494-.81.502-.804.51-.8.518-.794.526-.789.534-.783.543-.778.55-.772.558-.766.566-.761.574-.755.581-.749.59-.743.596-.737.604-.732.612-.725.618-.719.626-.713.633-.706.64-.7.648-.695.654-.688.66-.685.672-.384.382-.672.678-.664.684-.658.69-.652.697-.644.703-.637.709-.63.715-.623.721-.616.728-.609.733-.6.74-.594.745-.586.752-.579.757-.57.763-.563.769-.555.774-.547.78-.54.786-.53.79-.523.797-.515.801-.507.807-.498.812-.49.817-.482.822-.474.827-.465.831-.457.836-.449.841-.44.846-.431.85-.423.854-.415.858-.406.863-.398.866-.39.87-.382.88-.212.498-.368.88-.358.884-.35.887-.341.89-.333.893-.323.897-.314.9-.305.902-.297.906-.286.909-.278.91-.269.915-.259.917-.25.92-.24.92-.23.925-.222.926-.212.93-.203.93-.193.933-.183.935-.174.936-.165.938-.155.94-.145.942-.136.943-.126.945-.117.945-.107.947-.097.949-.089.949-.078.95-.07.95-.06.952-.05.952-.041.953-.033.954-.022.953-.014.955-.004.938.004.954.014.954.022.954.032.953.041.952.05.953.06.951.07.95.079.95.088.95.097.948.107.947.117.945.126.945.136.943.145.941.155.94.164.939.174.936.183.935.193.933.203.93.212.93.221.926.231.924.24.922.25.92.259.916.268.914.278.912.287.909.296.905.305.903.314.9.324.896.332.894.34.89.35.888.36.883.36.866.376.876.384.873.393.869.401.865.41.86.418.857.426.853.435.848.443.843.452.84.46.834.47.83.476.824.485.82.494.815.502.81.51.804.518.8.526.794.534.789.543.783.55.778.558.772.566.766.574.761.581.755.59.749.596.743.604.737.611.732.62.725.625.719.633.713.64.707.648.7.654.694.66.688.671.685.383.385.678.671.684.665.69.658.697.65.702.645.71.638.715.63.721.623.728.616.733.608.74.601.745.594.752.586.757.578.763.57.769.563.774.555.78.548.785.539.791.53.797.524.801.514.807.508.812.498.817.49.822.482.826.474.832.465.836.456.841.45.846.439.85.432.854.423.858.415.863.405.866.399.87.389.88.382.498.213.88.367.884.359.887.35.89.34.893.333.897.323.9.315.902.305.906.296.908.287.912.277.914.269.917.259.919.25.922.24.924.231.926.221.929.213.93.202.934.193.934.183.937.174.938.165.94.155.942.145.943.136.945.126.945.117.947.107.948.098.95.088.95.078.95.07.952.06.952.05.953.042.953.032.954.022.954.014.939.004.954-.004.954-.013.953-.023.954-.032.952-.042.953-.05.95-.06.952-.069.95-.079.949-.088.948-.097.947-.108.945-.116.945-.126.943-.136.941-.145.94-.155.939-.164.936-.174.935-.183.933-.193.93-.203.93-.211.926-.222.924-.231.922-.24.92-.25.916-.259.914-.269.912-.277.909-.287.905-.296.903-.305.9-.314.896-.323.894-.333.89-.34.887-.35.884-.36.866-.36.876-.376.873-.384.869-.393.865-.4.86-.41.857-.418.853-.427.848-.435.843-.443.84-.452.834-.46.83-.469.824-.477.82-.485.815-.494.81-.501.804-.51.8-.519.794-.526.789-.534.783-.542.778-.55.772-.558.766-.567.761-.574.755-.581.749-.589.743-.597.737-.604.731-.61.726-.62.719-.626.712-.633.707-.64.701-.647.694-.654.688-.661.685-.671.385-.382.671-.678.665-.684.658-.69.65-.697.645-.703.638-.71.63-.714.623-.722.616-.727.608-.734.601-.74.593-.745.587-.751.578-.758.57-.763.563-.768.555-.775.547-.78.54-.785.53-.791.524-.796.514-.802.507-.806.499-.813.49-.817.482-.821.473-.827.466-.832.456-.836.449-.841.44-.845.432-.85.423-.854.414-.859.406-.862.398-.867.39-.87.382-.88.213-.498.367-.88.359-.884.35-.887.34-.89.333-.893.323-.897.315-.9.305-.902.296-.906.287-.908.277-.912.269-.914.259-.916.25-.92.24-.922.23-.924.222-.926.213-.929.202-.93.193-.934.183-.934.175-.937.164-.938.155-.94.145-.942.136-.943.126-.944.117-.946.107-.947.097-.948.089-.95.078-.95.07-.95.06-.952.05-.952.042-.953.032-.953.022-.954.014-.954.004-.939v-.022z" data-paper-data="{&quot;fillRule&quot;:&quot;nonzero&quot;,&quot;isIcon&quot;:true,&quot;iconStyle&quot;:&quot;standalone&quot;,&quot;selectedEffects&quot;:{&quot;container&quot;:&quot;&quot;,&quot;transformation&quot;:&quot;&quot;,&quot;pattern&quot;:&quot;&quot;},&quot;bounds&quot;:{&quot;x&quot;:65,&quot;y&quot;:194.2962314076579,&quot;width&quot;:81.4075412550601,&quot;height&quot;:81.40753718468426},&quot;iconType&quot;:&quot;icon&quot;,&quot;rawIconId&quot;:&quot;60ca02c0-c4c4-4034-9fb1-342d0a67ca77&quot;,&quot;isDetailed&quot;:false}"/></svg>